<svg width="37" height="36" viewBox="0 0 37 36" fill="none" xmlns="http://www.w3.org/2000/svg">
<path d="M33.2913 15.0418V19.4793C33.2913 25.396 30.333 28.3543 24.4163 28.3543H23.6768C23.2182 28.3543 22.7745 28.5762 22.4934 28.946L20.2747 31.9043C19.2984 33.206 17.7009 33.206 16.7247 31.9043L14.5059 28.946C14.2693 28.6206 13.722 28.3543 13.3226 28.3543H12.583C6.66634 28.3543 3.70801 26.8752 3.70801 19.4793V12.0835C3.70801 6.16683 6.66634 3.2085 12.583 3.2085H21.458" stroke="#03216E" style="stroke:#03216E;stroke:color(display-p3 0.0118 0.1294 0.4314);stroke-opacity:1;" stroke-width="2.21875" stroke-miterlimit="10" stroke-linecap="round" stroke-linejoin="round"/>
<path d="M29.5934 10.6043C31.6357 10.6043 33.2913 8.94872 33.2913 6.90641C33.2913 4.86411 31.6357 3.2085 29.5934 3.2085C27.5511 3.2085 25.8955 4.86411 25.8955 6.90641C25.8955 8.94872 27.5511 10.6043 29.5934 10.6043Z" fill="#F25050" stroke="#03216E" style="fill:#F25050;fill:color(display-p3 0.9484 0.3122 0.3122);fill-opacity:1;stroke:#03216E;stroke:color(display-p3 0.0118 0.1294 0.4314);stroke-opacity:1;" stroke-width="2.21875" stroke-linecap="round" stroke-linejoin="round"/>
<path d="M24.4111 16.5208H24.4244" stroke="#03216E" style="stroke:#03216E;stroke:color(display-p3 0.0118 0.1294 0.4314);stroke-opacity:1;" stroke-width="2.95833" stroke-linecap="round" stroke-linejoin="round"/>
<path d="M18.4934 16.5208H18.5067" stroke="#03216E" style="stroke:#03216E;stroke:color(display-p3 0.0118 0.1294 0.4314);stroke-opacity:1;" stroke-width="2.95833" stroke-linecap="round" stroke-linejoin="round"/>
<path d="M12.5752 16.5208H12.5885" stroke="#03216E" style="stroke:#03216E;stroke:color(display-p3 0.0118 0.1294 0.4314);stroke-opacity:1;" stroke-width="2.95833" stroke-linecap="round" stroke-linejoin="round"/>
</svg>
