<svg width="22" height="22" viewBox="0 0 22 22" fill="none" xmlns="http://www.w3.org/2000/svg">
<path d="M19.0841 0.556641H10.164C8.77152 0.556641 7.63866 1.68926 7.63866 3.08224V7.567H3.39871C2.00715 7.56723 0.875 8.69985 0.875 10.0914V15.6991C0.875 17.0907 2.00715 18.2236 3.39871 18.2236H3.79384V19.97C3.79384 20.4443 4.06386 20.8575 4.49858 21.0467C4.64984 21.1127 4.81006 21.145 4.96887 21.145C5.26057 21.145 5.54849 21.0366 5.77257 20.8288L8.54603 18.2236H12.3213C13.7134 18.2236 14.8458 17.0909 14.8458 15.6991V12.0621L16.7137 13.8121C16.9357 14.0213 17.2241 14.1306 17.5165 14.1306C17.6737 14.1306 17.8325 14.0983 17.9826 14.0335C18.4118 13.8481 18.6894 13.4249 18.6894 12.9568V11.2153H19.0843C20.4766 11.2156 21.6094 10.0827 21.6094 8.68995V3.08224C21.6094 1.68949 20.4766 0.556641 19.0841 0.556641ZM12.3213 16.9489H8.29392C8.13181 16.9489 7.9756 17.0111 7.85755 17.1218L5.06854 19.7421V17.5862C5.06854 17.234 4.7832 16.9489 4.43119 16.9489H3.39871C2.71 16.9489 2.1497 16.3888 2.1497 15.6991V10.0914C2.1497 9.40176 2.71 8.84169 3.39871 8.84169H7.64644C7.72561 10.1637 8.82288 11.2156 10.164 11.2156H13.5708V15.6991C13.5711 16.3888 13.0103 16.9489 12.3213 16.9489ZM20.3347 8.68995C20.3347 9.37961 19.7737 9.94085 19.0841 9.94085H18.0518C17.6998 9.94085 17.4145 10.226 17.4145 10.5782V12.723C17.4145 12.723 14.653 10.1315 14.6478 10.1265L14.6346 10.114L14.633 10.1159L14.6297 10.1129C14.5117 10.0021 14.3557 9.94109 14.1938 9.94109H10.164C9.47437 9.94109 8.91336 9.37961 8.91336 8.69019V8.68901H8.91807L8.91336 3.08271C8.91336 2.39305 9.47437 1.83181 10.164 1.83181H19.0841C19.7737 1.83181 20.3347 2.39329 20.3347 3.08271V8.68995Z" fill="white" style="fill:white;fill-opacity:1;"/>
<path d="M17.1732 3.93506H12.0748C11.7228 3.93506 11.4375 4.22016 11.4375 4.57241C11.4375 4.92466 11.7228 5.20975 12.0748 5.20975H17.1734C17.5254 5.20975 17.8107 4.92466 17.8107 4.57241C17.8107 4.22016 17.5252 3.93506 17.1732 3.93506Z" fill="white" style="fill:white;fill-opacity:1;"/>
<path d="M17.1732 6.48389H12.0748C11.7228 6.48389 11.4375 6.76899 11.4375 7.12124C11.4375 7.47348 11.7228 7.75858 12.0748 7.75858H17.1734C17.5254 7.75858 17.8107 7.47348 17.8107 7.12124C17.8107 6.76899 17.5252 6.48389 17.1732 6.48389Z" fill="white" style="fill:white;fill-opacity:1;"/>
<path d="M5.31701 12.2733C5.24067 12.2983 5.17681 12.3492 5.1132 12.4003C4.99845 12.5273 4.92188 12.6941 4.92188 12.8595C4.92188 13.0249 4.99822 13.1906 5.1132 13.3051C5.24067 13.4321 5.39358 13.4969 5.55922 13.4969C5.64829 13.4969 5.73782 13.4707 5.81416 13.4457C5.89074 13.4196 5.95436 13.3685 6.01797 13.3051C6.13272 13.1906 6.20929 13.0249 6.20929 12.8595C6.20929 12.6941 6.13272 12.5271 6.01797 12.4003C5.83961 12.2349 5.55922 12.1713 5.31701 12.2733Z" fill="white" style="fill:white;fill-opacity:1;"/>
<path d="M8.36273 12.2734C8.12051 12.1713 7.84012 12.2347 7.66176 12.4004C7.54702 12.5274 7.4834 12.6942 7.4834 12.8596C7.4834 13.025 7.54702 13.1906 7.66176 13.3051C7.72538 13.3685 7.78923 13.4196 7.86557 13.4458C7.95487 13.4708 8.03121 13.4969 8.12051 13.4969C8.28639 13.4969 8.4393 13.4321 8.56677 13.3051C8.68152 13.1906 8.75809 13.025 8.75809 12.8596C8.75809 12.6942 8.68152 12.5271 8.56677 12.4004C8.50292 12.3495 8.4393 12.2983 8.36273 12.2734Z" fill="white" style="fill:white;fill-opacity:1;"/>
<path d="M10.9118 12.2737C10.7589 12.2089 10.5803 12.2089 10.4147 12.2737C10.3383 12.2987 10.2745 12.3496 10.2109 12.4007C10.0961 12.5277 10.0195 12.6945 10.0195 12.8599C10.0195 13.0253 10.0959 13.191 10.2109 13.3055C10.3383 13.4325 10.4912 13.4973 10.6571 13.4973C10.7462 13.4973 10.8355 13.4711 10.9121 13.4461C10.9886 13.42 11.0522 13.3688 11.1161 13.3055C11.2308 13.191 11.2945 13.0253 11.2945 12.8599C11.2945 12.6945 11.2306 12.5275 11.1161 12.4007C11.052 12.3498 10.9884 12.2987 10.9118 12.2737Z" fill="white" style="fill:white;fill-opacity:1;"/>
</svg>
