<svg width="64" height="63" viewBox="0 0 64 63" fill="none" xmlns="http://www.w3.org/2000/svg">
<g clip-path="url(#clip0_107_725)">
<path d="M57.337 0H6.66305C3.26474 0 0.5 2.76474 0.5 6.16305V56.837C0.5 60.2353 3.26474 63 6.66305 63H57.337C60.7353 63 63.5 60.2353 63.5 56.837V6.16305C63.5 2.76474 60.7353 0 57.337 0ZM59.3913 56.837C59.3913 57.9697 58.4697 58.8913 57.337 58.8913H6.66305C5.53028 58.8913 4.60866 57.9697 4.60866 56.837V20.5435H59.3912V56.837H59.3913ZM59.3913 16.4348H4.60866V6.16305C4.60866 5.03028 5.53028 4.10866 6.66305 4.10866H57.337C58.4697 4.10866 59.3913 5.03028 59.3913 6.16305V16.4348Z" fill="#4DC09A" style="fill:#4DC09A;fill:color(display-p3 0.3020 0.7529 0.6039);fill-opacity:1;"/>
<path d="M53.2289 8.21753H35.4245C34.29 8.21753 33.3701 9.1373 33.3701 10.2719C33.3701 11.4065 34.2899 12.3263 35.4245 12.3263H53.2289C54.3634 12.3263 55.2833 11.4065 55.2833 10.2719C55.2833 9.1373 54.3634 8.21753 53.2289 8.21753Z" fill="#03216E" style="fill:#03216E;fill:color(display-p3 0.0118 0.1294 0.4314);fill-opacity:1;"/>
<path d="M44.3246 30.1586H21.1329L20.2252 27.4353C19.9493 26.6079 19.1751 26.0498 18.3029 26.0498H11.455C10.3359 26.0498 9.42871 26.957 9.42871 28.076C9.42871 29.1951 10.3359 30.1022 11.455 30.1022H16.8424L17.7501 32.8255L21.8588 45.1516C22.1349 45.98 22.9137 46.5376 23.7808 46.5376C23.7853 46.5376 23.7896 46.5371 23.7942 46.5371H40.2158C41.0879 46.5371 41.8623 45.979 42.1381 45.1516L46.2468 32.8255C46.6836 31.5154 45.7072 30.1586 44.3246 30.1586ZM41.5132 34.2111L38.7553 42.4847H25.2415L22.4836 34.2111H41.5132Z" fill="#03216E" style="fill:#03216E;fill:color(display-p3 0.0118 0.1294 0.4314);fill-opacity:1;"/>
<path d="M25.8366 52.7284C26.9712 52.7284 27.891 51.8086 27.891 50.674C27.891 49.5394 26.9712 48.6196 25.8366 48.6196C24.702 48.6196 23.7822 49.5394 23.7822 50.674C23.7822 51.8086 24.702 52.7284 25.8366 52.7284Z" fill="#03216E" style="fill:#03216E;fill:color(display-p3 0.0118 0.1294 0.4314);fill-opacity:1;"/>
<path d="M38.1618 52.7282C39.2964 52.7282 40.2162 51.8084 40.2162 50.6738C40.2162 49.5392 39.2964 48.6194 38.1618 48.6194C37.0272 48.6194 36.1074 49.5392 36.1074 50.6738C36.1074 51.8084 37.0272 52.7282 38.1618 52.7282Z" fill="#03216E" style="fill:#03216E;fill:color(display-p3 0.0118 0.1294 0.4314);fill-opacity:1;"/>
<path d="M18.988 8.21753C17.8561 8.21753 16.9336 9.13755 16.9336 10.2719C16.9336 11.4033 17.8531 12.3263 18.988 12.3263C20.1158 12.3263 21.0424 11.4099 21.0424 10.2719C21.0424 9.1362 20.1176 8.21753 18.988 8.21753Z" fill="#03216E" style="fill:#03216E;fill:color(display-p3 0.0118 0.1294 0.4314);fill-opacity:1;"/>
<path d="M10.7722 8.21753C9.64026 8.21753 8.71777 9.13755 8.71777 10.2719C8.71777 11.4033 9.6373 12.3263 10.7722 12.3263C11.9 12.3263 12.8266 11.4099 12.8266 10.2719C12.8266 9.1362 11.9019 8.21753 10.7722 8.21753Z" fill="#03216E" style="fill:#03216E;fill:color(display-p3 0.0118 0.1294 0.4314);fill-opacity:1;"/>
<path d="M27.2067 8.21753C26.0748 8.21753 25.1523 9.13755 25.1523 10.2719C25.1523 11.4033 26.0719 12.3263 27.2067 12.3263C28.3346 12.3263 29.2611 11.4099 29.2611 10.2719C29.2611 9.1362 28.3364 8.21753 27.2067 8.21753Z" fill="#03216E" style="fill:#03216E;fill:color(display-p3 0.0118 0.1294 0.4314);fill-opacity:1;"/>
</g>
<defs>
<clipPath id="clip0_107_725">
<rect width="63" height="63" fill="white" style="fill:white;fill-opacity:1;" transform="translate(0.5)"/>
</clipPath>
</defs>
</svg>
