<svg width="79" height="79" viewBox="0 0 79 79" fill="none" xmlns="http://www.w3.org/2000/svg">
<rect x="0.385986" y="0.595215" width="78.1071" height="78.1071" rx="39.0535" fill="url(#paint0_linear_112_2107)" fill-opacity="0.05" style=""/>
<rect x="9.95007" y="10.1592" width="58.9788" height="58.9788" rx="29.4894" fill="url(#paint1_linear_112_2107)" fill-opacity="0.1" style=""/>
<rect x="10.3486" y="10.5577" width="58.1818" height="58.1818" rx="29.0909" stroke="url(#paint2_linear_112_2107)" stroke-opacity="0.2" style="" stroke-width="0.797011"/>
<path d="M39.0379 27.8942C39.2886 27.7592 39.5902 27.7592 39.8409 27.8942L50.8496 33.822C51.1239 33.9697 51.2949 34.256 51.2949 34.5676C51.2949 34.8791 51.1239 35.1655 50.8496 35.3132L39.8409 41.2409C39.5902 41.3759 39.2886 41.3759 39.0379 41.2409L28.0292 35.3132C27.7549 35.1655 27.5839 34.8791 27.5839 34.5676C27.5839 34.256 27.7549 33.9697 28.0292 33.822L39.0379 27.8942Z" fill="#4DC09A" style="fill:#4DC09A;fill:color(display-p3 0.3020 0.7529 0.6039);fill-opacity:1;"/>
<path d="M29.5764 38.0698L38.235 42.7321C38.9869 43.137 39.8919 43.137 40.6438 42.7321L49.3024 38.0698L50.8496 38.9029C51.1239 39.0506 51.2949 39.337 51.2949 39.6485C51.2949 39.96 51.1239 40.2464 50.8496 40.3941L39.8409 46.3219C39.5902 46.4568 39.2886 46.4568 39.0379 46.3219L28.0292 40.3941C27.7549 40.2464 27.5839 39.96 27.5839 39.6485C27.5839 39.337 27.7549 39.0506 28.0292 38.9029L29.5764 38.0698Z" fill="#4DC09A" style="fill:#4DC09A;fill:color(display-p3 0.3020 0.7529 0.6039);fill-opacity:1;"/>
<path d="M38.235 47.8131L29.5764 43.1508L28.0292 43.9838C27.7549 44.1315 27.5839 44.4179 27.5839 44.7294C27.5839 45.041 27.7549 45.3274 28.0292 45.475L39.0379 51.4028C39.2886 51.5378 39.5902 51.5378 39.8409 51.4028L50.8496 45.475C51.1239 45.3274 51.2949 45.041 51.2949 44.7294C51.2949 44.4179 51.1239 44.1315 50.8496 43.9838L49.3024 43.1508L40.6438 47.8131C39.8919 48.218 38.9869 48.218 38.235 47.8131Z" fill="#4DC09A" style="fill:#4DC09A;fill:color(display-p3 0.3020 0.7529 0.6039);fill-opacity:1;"/>
<defs>
<linearGradient id="paint0_linear_112_2107" x1="39.4395" y1="0.595215" x2="39.4395" y2="78.7023" gradientUnits="userSpaceOnUse">
<stop stop-color="#CAFF33" style="stop-color:#CAFF33;stop-color:color(display-p3 0.7940 1.0000 0.2000);stop-opacity:1;"/>
<stop offset="1" stop-color="#CAFF33" stop-opacity="0" style="stop-color:none;stop-opacity:0;"/>
</linearGradient>
<linearGradient id="paint1_linear_112_2107" x1="39.4395" y1="-28.8944" x2="39.4395" y2="162.388" gradientUnits="userSpaceOnUse">
<stop stop-color="#CAFF33" style="stop-color:#CAFF33;stop-color:color(display-p3 0.7940 1.0000 0.2000);stop-opacity:1;"/>
<stop offset="0.467671" stop-color="#CAFF33" stop-opacity="0" style="stop-color:none;stop-opacity:0;"/>
</linearGradient>
<linearGradient id="paint2_linear_112_2107" x1="39.4395" y1="-92.2568" x2="39.4395" y2="122.538" gradientUnits="userSpaceOnUse">
<stop stop-color="#CAFF33" style="stop-color:#CAFF33;stop-color:color(display-p3 0.7940 1.0000 0.2000);stop-opacity:1;"/>
<stop offset="0.716291" stop-color="#CAFF33" stop-opacity="0" style="stop-color:none;stop-opacity:0;"/>
</linearGradient>
</defs>
</svg>
