<svg width="71" height="66" viewBox="0 0 71 66" fill="none" xmlns="http://www.w3.org/2000/svg">
<path d="M43.8638 13.0525C40.7455 13.0525 37.7554 13.9906 35.4991 15.6222C33.2429 13.9906 30.2503 13.0525 27.1343 13.0525C23.5718 13.0525 20.1875 14.2614 17.8505 16.3704C17.081 17.0639 16.6416 18.078 16.6416 19.1539V34.3135C16.6416 35.6459 17.3185 36.8476 18.4537 37.5292C19.6222 38.2322 21.0449 38.2679 22.2632 37.6219C23.6835 36.8714 25.3673 36.4747 27.1343 36.4747C29.8798 36.4747 32.4258 37.4414 33.9411 39.0587C34.3449 39.4886 34.9077 39.7332 35.4991 39.7332C36.0905 39.7332 36.6534 39.4886 37.0571 39.0587C38.5747 37.439 41.1183 36.4747 43.8638 36.4747C45.6308 36.4747 47.3147 36.8714 48.735 37.6219C49.9581 38.2679 51.3783 38.2322 52.5445 37.5292C53.6797 36.8452 54.3566 35.6435 54.3566 34.3135V19.1539C54.3566 18.078 53.9149 17.0639 53.1454 16.3704C50.8107 14.2614 47.4263 13.0525 43.8638 13.0525ZM20.9166 33.5226V19.3676C22.4722 18.0661 24.7214 17.3251 27.132 17.3251C29.5759 17.3251 31.8179 18.1231 33.3592 19.4317V33.5535C31.4877 32.6937 29.3479 32.1997 27.132 32.1997C24.9304 32.2021 22.7952 32.6557 20.9166 33.5226ZM50.0816 33.5226C46.3053 31.7794 41.4033 31.8957 37.639 33.5796V19.4317C39.1803 18.1231 41.42 17.3251 43.8638 17.3251C46.2768 17.3251 48.5236 18.0685 50.0792 19.3676L50.0816 33.5226Z" fill="#03216E" style="fill:#03216E;fill:color(display-p3 0.0118 0.1294 0.4314);fill-opacity:1;"/>
<path d="M61.1607 0.265381H9.83695C4.4742 0.265381 0.111328 4.62826 0.111328 9.99338V42.7969C0.111328 48.1596 4.47658 52.5225 9.83933 52.5225H24.9158V61.462H19.2633C18.083 61.462 17.1258 62.4191 17.1258 63.5995C17.1258 64.7799 18.083 65.737 19.2633 65.737H51.7391C52.9194 65.737 53.8766 64.7799 53.8766 63.5995C53.8766 62.4191 52.9194 61.462 51.7391 61.462H46.0866V52.5225H61.1631C66.5258 52.5225 70.8911 48.1596 70.8911 42.7969V9.99338C70.8863 4.62826 66.5211 0.265381 61.1607 0.265381ZM41.8068 61.4596H29.1885V52.5201H41.8068V61.4596ZM66.6113 42.7945C66.6113 45.8013 64.1674 48.2451 61.1607 48.2451H9.83695C6.8302 48.2451 4.38633 45.7989 4.38633 42.7945V9.99338C4.38633 6.98663 6.8302 4.54276 9.83695 4.54276H61.1583C64.1651 4.54276 66.609 6.98901 66.609 9.99338L66.6113 42.7945Z" fill="#4DC09A" style="fill:#4DC09A;fill:color(display-p3 0.3020 0.7529 0.6039);fill-opacity:1;"/>
</svg>
