<svg width="24" height="27" viewBox="0 0 24 27" fill="none" xmlns="http://www.w3.org/2000/svg">
<path fill-rule="evenodd" clip-rule="evenodd" d="M11.8759 8.61459C9.65832 8.61459 7.86066 10.4123 7.86066 12.6298C7.86066 14.8473 9.65832 16.645 11.8759 16.645C14.0934 16.645 15.891 14.8473 15.891 12.6298C15.891 10.4123 14.0934 8.61459 11.8759 8.61459ZM9.27778 12.6298C9.27778 11.1949 10.441 10.0317 11.8759 10.0317C13.3107 10.0317 14.4739 11.1949 14.4739 12.6298C14.4739 14.0647 13.3107 15.2278 11.8759 15.2278C10.441 15.2278 9.27778 14.0647 9.27778 12.6298Z" fill="#309C78" style="fill:#309C78;fill:color(display-p3 0.1880 0.6121 0.4720);fill-opacity:1;"/>
<path fill-rule="evenodd" clip-rule="evenodd" d="M11.8768 3.41846C8.26207 3.41846 4.81342 5.55646 3.36992 8.93078C2.02653 12.0711 2.75378 14.7435 4.26798 17.0319C5.50944 18.9081 7.32013 20.5825 8.95367 22.0932C9.26513 22.3812 9.57029 22.6634 9.86369 22.9398L9.86525 22.9412C10.4085 23.4499 11.1301 23.7306 11.8768 23.7306C12.6236 23.7306 13.3452 23.4499 13.8884 22.9412C14.1657 22.6815 14.4532 22.4167 14.7465 22.1465C16.3978 20.625 18.2339 18.9332 19.4884 17.0331C21.0008 14.7424 21.7255 12.0672 20.3838 8.93078C18.9403 5.55646 15.4916 3.41846 11.8768 3.41846ZM4.67283 9.48815C5.881 6.66395 8.79753 4.83558 11.8768 4.83558C14.9562 4.83558 17.8727 6.66395 19.0809 9.48815C20.1881 12.0765 19.6294 14.2475 18.3058 16.2523C17.1555 17.9946 15.4705 19.5493 13.8141 21.0776C13.514 21.3545 13.2148 21.6306 12.9199 21.9067C12.6437 22.1653 12.27 22.3135 11.8768 22.3135C11.484 22.3135 11.1106 22.1656 10.8344 21.9073C10.5203 21.6115 10.2013 21.316 9.88139 21.0198C8.24615 19.5055 6.58784 17.9698 5.44981 16.2499C4.12492 14.2476 3.56412 12.0799 4.67283 9.48815Z" fill="#309C78" style="fill:#309C78;fill:color(display-p3 0.1880 0.6121 0.4720);fill-opacity:1;"/>
</svg>
