<svg width="24" height="28" viewBox="0 0 24 28" fill="none" xmlns="http://www.w3.org/2000/svg">
<path fill-rule="evenodd" clip-rule="evenodd" d="M14.6316 5.09141C12.7864 5.04505 10.9593 5.04505 9.11419 5.09141L9.05924 5.09279C7.61865 5.12896 6.45947 5.15806 5.53047 5.31985C4.55785 5.48924 3.76736 5.81411 3.09955 6.48447C2.43454 7.15201 2.11136 7.93114 1.9452 8.88799C1.78698 9.79908 1.76288 10.93 1.73303 12.3309L1.73185 12.3864C1.71178 13.3277 1.71178 14.2635 1.73185 15.2048L1.73304 15.2603C1.76289 16.6612 1.78699 17.7921 1.9452 18.7032C2.11137 19.66 2.43454 20.4392 3.09955 21.1067C3.76737 21.7771 4.55786 22.1019 5.53048 22.2713C6.45946 22.4331 7.61863 22.4622 9.05919 22.4984L9.11419 22.4998C10.9593 22.5461 12.7864 22.5461 14.6316 22.4998L14.6866 22.4984C16.1271 22.4622 17.2863 22.4331 18.2153 22.2713C19.1879 22.1019 19.9784 21.7771 20.6462 21.1067C21.3112 20.4392 21.6344 19.66 21.8006 18.7032C21.9588 17.7921 21.9829 16.6612 22.0127 15.2603L22.0139 15.2048C22.034 14.2635 22.034 13.3277 22.0139 12.3864L22.0127 12.3309C21.9829 10.93 21.9588 9.7991 21.8006 8.888C21.6344 7.93115 21.3112 7.15202 20.6462 6.48448C19.9784 5.81413 19.1879 5.48925 18.2153 5.31986C17.2863 5.15807 16.1271 5.12897 14.6865 5.09279L14.6316 5.09141ZM9.14978 6.50809C10.9712 6.46233 12.7746 6.46233 14.596 6.50809C16.1044 6.54599 17.1585 6.57427 17.9721 6.71598C18.754 6.85213 19.2414 7.08229 19.6422 7.48464C19.8066 7.6496 19.9416 7.82717 20.0528 8.03099L14.4401 11.2112C13.2542 11.8831 12.5345 12.1423 11.873 12.1423C11.2115 12.1423 10.4918 11.8831 9.30585 11.2112L3.69304 8.03091C3.80422 7.82711 3.9392 7.64956 4.10351 7.48462C4.50434 7.08227 4.9918 6.85212 5.77361 6.71596C6.58727 6.57426 7.64133 6.54598 9.14978 6.50809ZM3.29549 9.43446C3.19774 10.1825 3.17613 11.1281 3.14866 12.4166C3.12901 13.3378 3.12901 14.2534 3.14866 15.1746C3.18 16.6442 3.20369 17.6676 3.34143 18.4607C3.47331 19.2201 3.69989 19.7014 4.10352 20.1066C4.50434 20.5089 4.9918 20.7391 5.77362 20.8752C6.58727 21.0169 7.64133 21.0452 9.14979 21.0831C10.9712 21.1289 12.7746 21.1289 14.596 21.0831C16.1044 21.0452 17.1585 21.0169 17.9721 20.8752C18.754 20.7391 19.2414 20.5089 19.6422 20.1066C20.0459 19.7014 20.2724 19.2201 20.4043 18.4607C20.5421 17.6676 20.5658 16.6442 20.5971 15.1746C20.6167 14.2534 20.6167 13.3378 20.5971 12.4166C20.5696 11.1281 20.548 10.1826 20.4503 9.43456L15.1387 12.4441C13.9169 13.1364 12.924 13.5594 11.873 13.5594C10.8219 13.5594 9.82907 13.1364 8.60724 12.4441L3.29549 9.43446Z" fill="#309C78" style="fill:#309C78;fill:color(display-p3 0.1880 0.6121 0.4720);fill-opacity:1;"/>
</svg>
