<svg width="68" height="68" viewBox="0 0 68 68" fill="none" xmlns="http://www.w3.org/2000/svg">
<path d="M34 50.2817C35.1736 50.2817 36.125 49.3303 36.125 48.1567C36.125 46.9831 35.1736 46.0317 34 46.0317C32.8264 46.0317 31.875 46.9831 31.875 48.1567C31.875 49.3303 32.8264 50.2817 34 50.2817Z" fill="#03216E" style="fill:#03216E;fill:color(display-p3 0.0118 0.1294 0.4314);fill-opacity:1;"/>
<path d="M48.0651 65.875H19.9365L26.3136 53.125H41.6838L48.0651 65.875ZM26.813 61.625H41.1844L39.0573 57.375H28.9401L26.813 61.625Z" fill="#4DC09A" style="fill:#4DC09A;fill:color(display-p3 0.3020 0.7529 0.6039);fill-opacity:1;"/>
<path d="M53.125 61.625H14.875C13.7014 61.625 12.75 62.5764 12.75 63.75C12.75 64.9236 13.7014 65.875 14.875 65.875H53.125C54.2986 65.875 55.25 64.9236 55.25 63.75C55.25 62.5764 54.2986 61.625 53.125 61.625Z" fill="#4DC09A" style="fill:#4DC09A;fill:color(display-p3 0.3020 0.7529 0.6039);fill-opacity:1;"/>
<path d="M55.25 57.375H12.75C6.89138 57.375 2.125 52.6086 2.125 46.75V12.75C2.125 6.89138 6.89138 2.125 12.75 2.125H55.25C61.1086 2.125 65.875 6.89138 65.875 12.75V46.75C65.875 52.6086 61.1086 57.375 55.25 57.375ZM12.75 6.375C9.23525 6.375 6.375 9.23525 6.375 12.75V46.75C6.375 50.2648 9.23525 53.125 12.75 53.125H55.25C58.7648 53.125 61.625 50.2648 61.625 46.75V12.75C61.625 9.23525 58.7648 6.375 55.25 6.375H12.75Z" fill="#4DC09A" style="fill:#4DC09A;fill:color(display-p3 0.3020 0.7529 0.6039);fill-opacity:1;"/>
<path d="M41.5697 13.0581L49.3855 12.2591C50.907 12.104 52.267 13.2111 52.4221 14.7326L53.2211 22.5484C53.3401 23.715 52.4901 24.7584 51.3235 24.8774C50.1568 24.9964 49.1135 24.1464 48.9945 22.9798L48.3463 16.6366L42.0032 17.2848C40.8366 17.4038 39.7932 16.5538 39.6742 15.3871C39.5552 14.2205 40.4031 13.1771 41.5697 13.0581Z" fill="#03216E" style="fill:#03216E;fill:color(display-p3 0.0118 0.1294 0.4314);fill-opacity:1;"/>
<path d="M15.4891 33.1032C14.6072 32.3276 14.5222 30.9846 15.2978 30.1027L23.8616 20.3681C25.0091 19.0633 26.6645 18.2962 28.4048 18.2686H28.509C30.2111 18.2686 31.8495 18.9762 33.0182 20.2172L36.1845 23.5853C36.5563 23.9806 37.0557 24.1973 37.5955 24.1973H37.6061C38.1522 24.1952 38.6558 23.9721 39.0256 23.5705L47.8741 13.9336L51.0042 16.8087L42.1557 26.4456C40.9955 27.71 39.3465 28.4388 37.6316 28.4495C35.9337 28.39 34.2613 27.7482 33.0883 26.4987L29.9221 23.1327C29.5417 22.729 29.0806 22.5377 28.475 22.5207C27.9225 22.5292 27.4188 22.763 27.0533 23.1795L18.4896 32.9141C17.714 33.796 16.371 33.881 15.4891 33.1053V33.1032Z" fill="#03216E" style="fill:#03216E;fill:color(display-p3 0.0118 0.1294 0.4314);fill-opacity:1;"/>
<path d="M4.25 38.9385H63.75V43.1885H4.25V38.9385Z" fill="#4DC09A" style="fill:#4DC09A;fill:color(display-p3 0.3020 0.7529 0.6039);fill-opacity:1;"/>
</svg>
