<svg width="75" height="74" viewBox="0 0 75 74" fill="none" xmlns="http://www.w3.org/2000/svg">
<g clip-path="url(#clip0_107_1938)">
<path d="M45.5313 74H17.4922C11.1164 74 5.92969 68.8132 5.92969 62.4375V11.5625C5.92969 5.18675 11.1164 0 17.4922 0H45.5313C51.907 0 57.0938 5.18675 57.0938 11.5625V16.0605C57.0938 17.6571 55.7997 18.9511 54.2031 18.9511C52.6065 18.9511 51.3125 17.6571 51.3125 16.0605V11.5625C51.3125 8.37491 48.7188 5.78125 45.5313 5.78125H17.4922C14.3046 5.78125 11.7109 8.37491 11.7109 11.5625V62.4375C11.7109 65.6251 14.3046 68.2188 17.4922 68.2188H45.5313C48.7188 68.2188 51.3125 65.6251 51.3125 62.4375V56.9628C51.3125 55.3662 52.6065 54.0722 54.2031 54.0722C55.7997 54.0722 57.0938 55.3662 57.0938 56.9628V62.4375C57.0938 68.8132 51.907 74 45.5313 74ZM34.4023 60.8652C34.4023 59.2685 33.1083 57.9745 31.5117 57.9745C29.9151 57.9745 28.6211 59.2685 28.6211 60.8652C28.6211 62.4618 29.9151 63.7558 31.5117 63.7558C33.1083 63.7558 34.4023 62.4618 34.4023 60.8652ZM37.293 13.1698C37.293 11.5732 35.999 10.2792 34.4023 10.2792H28.6211C27.0245 10.2792 25.7305 11.5732 25.7305 13.1698C25.7305 14.7665 27.0245 16.0605 28.6211 16.0605H34.4023C35.999 16.0605 37.293 14.7665 37.293 13.1698ZM41.2365 51.4706C42.5492 51.4706 43.846 50.6057 44.2017 49.3535L50.7671 26.2578C51.2944 24.4043 49.8892 22.5644 47.9471 22.5644C46.6344 22.5644 45.4821 23.4293 45.1265 24.6815L38.561 47.7777C38.0343 49.6312 39.2944 51.4706 41.2365 51.4706ZM33.7266 47.9804C34.7524 46.757 34.592 44.9334 33.3686 43.9081L26.22 37.914C25.9202 37.656 25.875 37.3325 25.875 37.162C25.875 36.9915 25.9202 36.668 26.22 36.41L33.3686 30.4159C34.592 29.3907 34.7524 27.5671 33.7266 26.3436C32.7013 25.1208 30.8777 24.9599 29.6543 25.9857L22.4966 31.9871C22.4921 31.9911 22.487 31.995 22.4825 31.9996C20.9643 33.2885 20.0938 35.1702 20.0938 37.162C20.0938 39.1539 20.9643 41.0356 22.4825 42.3245C22.487 42.3285 22.4915 42.3324 22.4966 42.3369L29.6543 48.3384C30.1957 48.7923 30.8546 49.0136 31.51 49.0136C32.3354 49.0136 33.1552 48.6619 33.7266 47.9804ZM59.1178 48.3192L66.123 42.3245C67.6412 41.0356 68.5117 39.1539 68.5117 37.162C68.5117 35.1702 67.6412 33.2885 66.1309 32.0063L59.1178 26.0049C57.9045 24.9666 56.0798 25.1089 55.0421 26.3216C54.0038 27.5349 54.1461 29.3596 55.3588 30.3973L62.3804 36.4055C62.6847 36.6641 62.7305 36.9904 62.7305 37.162C62.7305 37.3331 62.6853 37.6594 62.3725 37.9248L55.3588 43.9268C54.1461 44.9645 54.0038 46.7892 55.0421 48.0019C55.614 48.6703 56.4242 49.0136 57.24 49.0136C57.9045 49.0136 58.5729 48.7855 59.1178 48.3192Z" fill="#4DC09A" style="fill:#4DC09A;fill:color(display-p3 0.3020 0.7529 0.6039);fill-opacity:1;"/>
<circle cx="31.8516" cy="60.9412" r="3.26471" fill="#03216E" style="fill:#03216E;fill:color(display-p3 0.0118 0.1294 0.4314);fill-opacity:1;"/>
<rect x="25.3223" y="9.79419" width="11.9706" height="6.52941" rx="3.26471" fill="#03216E" style="fill:#03216E;fill:color(display-p3 0.0118 0.1294 0.4314);fill-opacity:1;"/>
<path d="M49.2635 21.7646L40.5576 52.2352" stroke="#03216E" style="stroke:#03216E;stroke:color(display-p3 0.0118 0.1294 0.4314);stroke-opacity:1;" stroke-width="6.52941" stroke-linecap="round"/>
</g>
<defs>
<clipPath id="clip0_107_1938">
<rect width="74" height="74" fill="white" style="fill:white;fill-opacity:1;" transform="translate(0.292969)"/>
</clipPath>
</defs>
</svg>
