<svg width="24" height="28" viewBox="0 0 24 28" fill="none" xmlns="http://www.w3.org/2000/svg">
<path fill-rule="evenodd" clip-rule="evenodd" d="M5.55935 3.8949C6.09473 4.00555 6.52109 4.36526 6.78599 4.8405L7.62985 6.3544C7.94068 6.912 8.20226 7.38125 8.37308 7.78916C8.55429 8.22188 8.66191 8.64858 8.61272 9.12035C8.56352 9.59212 8.37017 9.98744 8.10359 10.3735C7.85228 10.7374 7.49951 11.1425 7.08032 11.624L4.97555 14.0417C6.64478 16.7776 9.10957 19.2435 11.8484 20.9145L14.266 18.8097C14.7475 18.3905 15.1527 18.0377 15.5166 17.7864C15.9026 17.5198 16.2979 17.3265 16.7697 17.2773C17.2414 17.2281 17.6681 17.3357 18.1009 17.5169C18.5088 17.6878 18.978 17.9493 19.5356 18.2602L21.0495 19.104C21.5248 19.3689 21.8845 19.7953 21.9951 20.3307C22.1069 20.8716 21.942 21.4154 21.5778 21.8623C20.2561 23.4838 18.1387 24.5163 15.9174 24.0682C14.552 23.7927 13.2047 23.3339 11.5753 22.3994C8.30143 20.5218 5.36602 17.5848 3.49062 14.3147C2.55615 12.6853 2.09727 11.3381 1.82183 9.97265C1.37374 7.75133 2.4062 5.63388 4.02773 4.31226C4.47463 3.94802 5.01838 3.78309 5.55935 3.8949ZM13.1683 21.6443C14.2702 22.1872 15.2287 22.4836 16.1976 22.679C17.7999 23.0023 19.4176 22.2696 20.4793 20.967C20.6187 20.7959 20.6195 20.6765 20.6073 20.6175C20.594 20.5529 20.5399 20.4423 20.3596 20.3418L18.8796 19.5169C18.2791 19.1822 17.8793 18.9605 17.5535 18.8241C17.2442 18.6946 17.0667 18.6711 16.9166 18.6868C16.7666 18.7024 16.5978 18.762 16.3219 18.9525C16.0312 19.1532 15.6857 19.4526 15.1672 19.904L13.1683 21.6443ZM4.24576 12.7217L5.98597 10.7228C6.43741 10.2043 6.73678 9.85881 6.93751 9.56815C7.12805 9.29225 7.18758 9.12343 7.20323 8.97337C7.21888 8.82331 7.19546 8.64583 7.06595 8.33656C6.9295 8.01074 6.70784 7.61095 6.37311 7.01042L5.54817 5.53046C5.44767 5.35016 5.33715 5.29605 5.27251 5.28269C5.21347 5.27049 5.09407 5.27135 4.92304 5.41074C3.62044 6.47242 2.88775 8.09008 3.21098 9.69242C3.40643 10.6613 3.70279 11.6198 4.24576 12.7217Z" fill="#309C78" style="fill:#309C78;fill:color(display-p3 0.1880 0.6121 0.4720);fill-opacity:1;"/>
</svg>
