<svg width="66" height="62" viewBox="0 0 66 62" fill="none" xmlns="http://www.w3.org/2000/svg">
<path d="M64.7837 29.1784L54.3695 23.3999C53.753 23.0917 53.0596 23.0917 52.4434 23.3999L48.2828 25.7505V9.68555H17.464V25.7505L13.3033 23.3999C12.6871 23.0917 11.9937 23.0917 11.3772 23.3999L0.963088 29.1784C0.385107 29.525 0 30.1801 0 30.8735C0 31.5669 0.385107 32.2217 0.963088 32.5685L8.37245 36.652L28.058 53.7565H37.6889L57.3744 36.652L64.7837 32.5685C65.3617 32.2217 65.7468 31.5669 65.7468 30.8735C65.7468 30.1801 65.3617 29.525 64.7837 29.1784ZM32.8734 34.4562L23.1225 28.9473H42.6242L32.8734 34.4562Z" fill="url(#paint0_linear_6_2188)" style=""/>
<path d="M64.7837 40.7355L57.3744 36.652L33.8365 49.9041C33.5283 50.0581 33.1816 50.1353 32.8734 50.1353C32.5652 50.1353 32.2185 50.0581 31.9103 49.9041L8.37245 36.652L0.963088 40.7355C0.385107 41.0821 0 41.7371 0 42.4306C0 43.124 0.385107 43.7788 0.963088 44.1256L31.9103 61.4612C32.2185 61.6152 32.5652 61.6923 32.8734 61.6923C33.1816 61.6923 33.5283 61.6152 33.8365 61.4612L64.7837 44.1256C65.3617 43.7788 65.7468 43.124 65.7468 42.4306C65.7468 41.7371 65.3617 41.0821 64.7837 40.7355ZM0.963088 21.0115L31.9103 38.3471C32.2185 38.501 32.5652 38.5782 32.8734 38.5782C33.1816 38.5782 33.5283 38.501 33.8365 38.3471L64.7837 21.0115C65.3617 20.6646 65.7468 20.0099 65.7468 19.3165C65.7468 18.623 65.3617 17.968 64.7837 17.6214L33.8365 0.285829C33.2202 -0.0223596 32.5266 -0.0223596 31.9103 0.285829L0.963088 17.6214C0.385107 17.968 0 18.623 0 19.3165C0 20.0099 0.385107 20.6646 0.963088 21.0115ZM39.2299 16.8123C38.4594 16.0803 38.4594 14.8476 39.2299 14.1156C39.9619 13.3453 41.1945 13.3453 41.9264 14.1156L45.7788 17.968C46.5493 18.6999 46.5493 19.9327 45.7788 20.6646L41.9264 24.517C41.2335 25.2875 39.9232 25.2877 39.2299 24.517C38.4594 23.7851 38.4594 22.5523 39.2299 21.8204L41.6952 19.3165L39.2299 16.8123ZM30.0227 22.7065L31.9488 15.0018C32.2185 13.9616 33.2585 13.3453 34.2988 13.6147C35.339 13.8459 35.9553 14.8861 35.7242 15.9263L33.798 23.631C33.4698 24.8893 32.0482 25.3183 31.448 25.0178C30.4079 24.7868 29.7915 23.7465 30.0227 22.7065ZM19.9682 17.968L23.8205 14.1156C24.5525 13.3453 25.7851 13.3453 26.517 14.1156C27.2875 14.8476 27.2875 16.0803 26.517 16.8123L24.0516 19.3165L26.5169 21.8204C27.2874 22.5523 27.2874 23.7851 26.5169 24.517C25.824 25.2875 24.5137 25.2877 23.8204 24.517L19.968 20.6646C19.1976 19.9327 19.1976 18.6999 19.9682 17.968Z" fill="url(#paint1_linear_6_2188)" style=""/>
<defs>
<linearGradient id="paint0_linear_6_2188" x1="32.8734" y1="53.7565" x2="32.8734" y2="9.68555" gradientUnits="userSpaceOnUse">
<stop stop-color="#ADDCFF" style="stop-color:#ADDCFF;stop-color:color(display-p3 0.6784 0.8627 1.0000);stop-opacity:1;"/>
<stop offset="0.5028" stop-color="#EAF6FF" style="stop-color:#EAF6FF;stop-color:color(display-p3 0.9176 0.9647 1.0000);stop-opacity:1;"/>
<stop offset="1" stop-color="#EAF6FF" style="stop-color:#EAF6FF;stop-color:color(display-p3 0.9176 0.9647 1.0000);stop-opacity:1;"/>
</linearGradient>
<linearGradient id="paint1_linear_6_2188" x1="32.8734" y1="61.6923" x2="32.8734" y2="0.0546875" gradientUnits="userSpaceOnUse">
<stop stop-color="#03216E" style="stop-color:#03216E;stop-color:color(display-p3 0.0118 0.1294 0.4314);stop-opacity:1;"/>
<stop offset="1" stop-color="#4DC09A" style="stop-color:#4DC09A;stop-color:color(display-p3 0.3020 0.7529 0.6039);stop-opacity:1;"/>
</linearGradient>
</defs>
</svg>
