<svg width="24" height="23" viewBox="0 0 24 23" fill="none" xmlns="http://www.w3.org/2000/svg">
<path d="M20.6235 5.51902L17.5247 17.9142C17.3493 18.6493 16.9294 19.303 16.3338 19.7682C15.7381 20.2334 15.0021 20.4824 14.2464 20.4744H14.2275C13.4667 20.4787 12.7274 20.2223 12.1326 19.7479C11.5379 19.2734 11.1236 18.6096 10.9586 17.8669L10.1462 14.4186L15.2289 9.33581C15.317 9.24773 15.3869 9.14315 15.4346 9.02806C15.4822 8.91297 15.5068 8.78961 15.5068 8.66504C15.5068 8.54046 15.4822 8.41711 15.4346 8.30202C15.3869 8.18693 15.317 8.08235 15.2289 7.99427C15.1408 7.90618 15.0363 7.8363 14.9212 7.78863C14.8061 7.74096 14.6827 7.71642 14.5581 7.71642C14.4336 7.71642 14.3102 7.74096 14.1951 7.78863C14.08 7.8363 13.9755 7.90618 13.8874 7.99427L8.80461 13.077L5.35627 12.2645C4.61833 12.0919 3.95988 11.6761 3.48682 11.0841C3.01376 10.492 2.75359 9.75797 2.74813 9.00012C2.74268 8.24228 2.99227 7.50462 3.45676 6.90579C3.92125 6.30695 4.57365 5.88173 5.30903 5.69852L17.7042 2.59974C18.1075 2.49889 18.53 2.5042 18.9306 2.61516C19.3313 2.72612 19.6963 2.93894 19.9903 3.23289C20.2843 3.52685 20.4971 3.89192 20.608 4.29255C20.719 4.69318 20.7243 5.11572 20.6235 5.51902Z" fill="white" style="fill:white;fill-opacity:1;"/>
</svg>
