<svg width="28" height="28" viewBox="0 0 28 28" fill="none" xmlns="http://www.w3.org/2000/svg">
<path fill-rule="evenodd" clip-rule="evenodd" d="M11.0522 5.18075C11.4303 5.18075 11.7626 5.4314 11.8665 5.79494L12.7846 9.00857C13.1865 10.4152 14.286 11.5147 15.6927 11.9166L18.9063 12.8348C19.2698 12.9386 19.5205 13.2709 19.5205 13.649C19.5205 14.0271 19.2698 14.3594 18.9063 14.4632L15.6927 15.3814C14.286 15.7833 13.1865 16.8828 12.7846 18.2894L11.8665 21.5031C11.7626 21.8666 11.4303 22.1172 11.0522 22.1172C10.6741 22.1172 10.3419 21.8666 10.238 21.5031L9.31981 18.2894C8.91792 16.8828 7.81841 15.7833 6.4118 15.3814L3.19817 14.4632C2.83463 14.3594 2.58398 14.0271 2.58398 13.649C2.58398 13.2709 2.83463 12.9386 3.19817 12.8348L6.4118 11.9166C7.81841 11.5147 8.91792 10.4152 9.31981 9.00857L10.238 5.79494C10.3419 5.4314 10.6741 5.18075 11.0522 5.18075Z" fill="#4DC09A" style="fill:#4DC09A;fill:color(display-p3 0.3020 0.7529 0.6039);fill-opacity:1;"/>
<path fill-rule="evenodd" clip-rule="evenodd" d="M21.2141 1.79346C21.6027 1.79346 21.9414 2.05792 22.0357 2.4349L22.3279 3.60403C22.5934 4.66595 23.4226 5.4951 24.4845 5.76058L25.6536 6.05286C26.0306 6.14711 26.2951 6.48582 26.2951 6.8744C26.2951 7.26298 26.0306 7.6017 25.6536 7.69594L24.4845 7.98823C23.4226 8.25371 22.5934 9.08285 22.3279 10.1448L22.0357 11.3139C21.9414 11.6909 21.6027 11.9553 21.2141 11.9553C20.8255 11.9553 20.4868 11.6909 20.3926 11.3139L20.1003 10.1448C19.8348 9.08285 19.0057 8.25371 17.9438 7.98823L16.7746 7.69594C16.3976 7.6017 16.1332 7.26298 16.1332 6.8744C16.1332 6.48582 16.3976 6.14711 16.7746 6.05286L17.9438 5.76058C19.0057 5.4951 19.8348 4.66595 20.1003 3.60404L20.3926 2.4349C20.4868 2.05792 20.8255 1.79346 21.2141 1.79346Z" fill="#4DC09A" style="fill:#4DC09A;fill:color(display-p3 0.3020 0.7529 0.6039);fill-opacity:1;"/>
<path fill-rule="evenodd" clip-rule="evenodd" d="M19.5205 17.0363C19.885 17.0363 20.2086 17.2695 20.3238 17.6153L20.769 18.9508C20.9376 19.4565 21.3344 19.8533 21.8401 20.0219L23.1756 20.467C23.5214 20.5823 23.7546 20.9059 23.7546 21.2704C23.7546 21.6349 23.5214 21.9585 23.1756 22.0738L21.8401 22.5189C21.3344 22.6875 20.9376 23.0844 20.769 23.5901L20.3238 24.9255C20.2086 25.2713 19.885 25.5045 19.5205 25.5045C19.156 25.5045 18.8324 25.2713 18.7171 24.9255L18.272 23.5901C18.1034 23.0844 17.7065 22.6875 17.2008 22.5189L15.8654 22.0738C15.5196 21.9585 15.2863 21.6349 15.2863 21.2704C15.2863 20.9059 15.5196 20.5823 15.8654 20.467L17.2008 20.0219C17.7065 19.8533 18.1034 19.4565 18.272 18.9508L18.7171 17.6153C18.8324 17.2695 19.156 17.0363 19.5205 17.0363Z" fill="#4DC09A" style="fill:#4DC09A;fill:color(display-p3 0.3020 0.7529 0.6039);fill-opacity:1;"/>
</svg>
