<?xml version="1.0" encoding="UTF-8"?>
<svg width="64px" height="64px" viewBox="0 0 64 64" version="1.1" xmlns="http://www.w3.org/2000/svg" xmlns:xlink="http://www.w3.org/1999/xlink">
    <g stroke="none" stroke-width="1" fill="none" fill-rule="evenodd">
        <g transform="translate(10.000000, 2.000000)" fill="#46BBA7" fill-rule="nonzero">
            <path d="M42,24 L42,20 C42,8.954 32.822,0 21.5,0 C10.178,0 1,8.954 1,20 L1,24 C0.438,24 0,24.448 0,25 L0,35 C0,35.552 0.438,36 1,36 L7,36 C7.562,36 8,35.552 8,35 L8,25 C8,24.448 7.562,24 7,24 L7,20 C7,12.28 13.504,6 21.5,6 C29.496,6 36,12.28 36,20 L36,24 L35,24 C34.438,24 34,24.448 34,25 L34,35 C34,35.552 34.438,36 35,36 L36,36 L36,40 L21,40 C18.794,40 17,41.794 17,44 L17,46 C17,47.104 17.895,48 19,48 L41,48 C42.105,48 43,47.104 43,46 L43,44 C43,41.794 41.206,40 39,40 L42,40 C43.105,40 44,39.104 44,38 L44,26 C44,24.896 43.105,24 42,24 Z M6,26 L6,34 L2,34 L2,26 L6,26 Z M41,44 C41,45.104 40.105,46 39,46 L21,46 C19.895,46 19,45.104 19,44 C19,42.896 19.895,42 21,42 L39,42 C40.105,42 41,42.896 41,44 Z M42,34 L36,34 L36,26 L42,26 L42,34 Z"/>
        </g>
    </g>
</svg> 