<svg width="28" height="29" viewBox="0 0 28 29" fill="none" xmlns="http://www.w3.org/2000/svg">
<path d="M15.0394 20.061C14.721 19.6692 14.5414 19.1958 14.5006 18.706C14.068 18.7876 13.6272 18.8284 13.1782 18.8284C10.5414 18.8284 8.20675 17.506 6.81088 15.4814C4.53331 16.9753 2.77821 19.261 1.99452 22.004L1.78226 22.7713C1.70885 23.0161 1.75781 23.2856 1.91294 23.4897C2.06803 23.6937 2.31291 23.8162 2.56595 23.8162H16.1251C16.117 23.6692 16.1088 23.5223 16.117 23.3754L16.2149 21.5141L15.0394 20.061Z" fill="#4DC09A" style="fill:#4DC09A;fill:color(display-p3 0.3020 0.7529 0.6039);fill-opacity:1;"/>
<path d="M7.07202 11.0899C7.07202 14.4612 9.80668 17.196 13.1781 17.196C14.4755 17.1912 15.7176 16.785 16.7536 16.0286C18.2883 14.9347 19.2842 13.1307 19.2842 11.0899C19.2842 7.71847 16.5495 4.97559 13.1781 4.97559C9.80668 4.97559 7.07202 7.71847 7.07202 11.0899Z" fill="#4DC09A" style="fill:#4DC09A;fill:color(display-p3 0.3020 0.7529 0.6039);fill-opacity:1;"/>
<path d="M26.1993 18.2672C26.1136 18.0045 25.9011 17.8024 25.6341 17.731L23.2242 17.0853L21.8661 14.9935C21.5648 14.5295 20.7979 14.5295 20.4965 14.9935L19.1385 17.0853L16.7286 17.731C16.4616 17.8024 16.2491 18.0045 16.1634 18.2672C16.0781 18.5303 16.1316 18.8184 16.3053 19.0333L17.8754 20.9716L17.7446 23.4633C17.7299 23.7391 17.8563 24.0037 18.0799 24.1664C18.2214 24.2692 18.39 24.3222 18.5598 24.3222C18.6587 24.3222 18.7575 24.3043 18.8523 24.268L21.1814 23.3736L23.5104 24.268C23.7678 24.3665 24.0592 24.329 24.2828 24.1664C24.5064 24.0037 24.6328 23.7391 24.6181 23.4628L24.4869 20.9716L26.057 19.0333C26.2311 18.8184 26.2846 18.5303 26.1993 18.2672Z" fill="#4DC09A" style="fill:#4DC09A;fill:color(display-p3 0.3020 0.7529 0.6039);fill-opacity:1;"/>
</svg>
