<svg width="65" height="71" viewBox="0 0 65 71" fill="none" xmlns="http://www.w3.org/2000/svg">
<path d="M14.8065 53.9978H10.3496C7.20427 53.9978 3.54622 51.4266 3.54622 48.11V17.0023H61.4534V48.1109C61.4534 51.4266 57.7962 53.9987 54.6509 53.9987H50.1939V57.2158H54.6509C59.381 57.2158 64.6705 53.3217 64.6705 48.1109V10.1237C64.6705 5.30537 59.9084 0.916748 54.6785 0.916748H10.3496C5.61949 0.916748 0.329102 4.85493 0.329102 10.1237V48.1109C0.329102 53.3217 5.61949 57.2158 10.3496 57.2158H14.8057C15.6945 57.2158 16.4138 56.4965 16.4138 55.6077C16.4138 54.7189 15.6953 53.9978 14.8065 53.9978ZM3.54708 10.1237C3.54708 7.10111 6.91723 4.13386 10.3505 4.13386H54.6794C58.1619 4.13386 61.4543 7.04491 61.4543 10.1237V13.7852H3.54708V10.1237Z" fill="#4DC09A" style="fill:#4DC09A;fill:color(display-p3 0.3020 0.7529 0.6039);fill-opacity:1;"/>
<path d="M38.934 7.35107H37.3259C36.438 7.35107 35.7178 8.07041 35.7178 8.9592C35.7178 9.84799 36.4388 10.5673 37.3259 10.5673H38.934C39.8228 10.5673 40.5421 9.84799 40.5421 8.9592C40.5421 8.07041 39.8228 7.35107 38.934 7.35107Z" fill="#03216E" style="fill:#03216E;fill:color(display-p3 0.0118 0.1294 0.4314);fill-opacity:1;"/>
<path d="M46.977 7.35107H45.3689C44.4809 7.35107 43.7607 8.07041 43.7607 8.9592C43.7607 9.84799 44.4818 10.5673 45.3689 10.5673H46.977C47.8658 10.5673 48.5851 9.84799 48.5851 8.9592C48.5851 8.07041 47.8667 7.35107 46.977 7.35107Z" fill="#03216E" style="fill:#03216E;fill:color(display-p3 0.0118 0.1294 0.4314);fill-opacity:1;"/>
<path d="M55.02 7.35107H53.4118C52.5239 7.35107 51.8037 8.07041 51.8037 8.9592C51.8037 9.84799 52.5248 10.5673 53.4118 10.5673H55.02C55.9087 10.5673 56.6281 9.84799 56.6281 8.9592C56.6281 8.07041 55.9087 7.35107 55.02 7.35107Z" fill="#03216E" style="fill:#03216E;fill:color(display-p3 0.0118 0.1294 0.4314);fill-opacity:1;"/>
<path d="M25.3524 55.2912L24.7835 58.0976C24.6538 58.7366 24.8163 59.3937 25.2296 59.8977C25.6429 60.4018 26.2524 60.6914 26.9043 60.6914H38.8563C39.5082 60.6914 40.1195 60.4009 40.5327 59.8951C40.946 59.3893 41.1068 58.7314 40.9754 58.0916L40.3987 55.2834L43.232 57.4086C43.615 57.6947 44.068 57.8417 44.5254 57.8417C44.8556 57.8417 45.1876 57.7648 45.4963 57.6091C46.2329 57.24 46.692 56.4999 46.692 55.6751V46.6039C46.692 45.9269 46.3695 45.2811 45.8266 44.873L42.4962 42.3752C42.421 42.319 42.3354 42.287 42.2541 42.242V35.481C42.2541 32.6331 41.3913 29.8949 39.7581 27.5606L35.1075 20.9171C34.0907 19.4637 31.6699 19.4672 30.6531 20.9171L26.0034 27.5606C24.3693 29.8949 23.5074 32.6331 23.5074 35.481V42.242C23.4261 42.2879 23.3396 42.3199 23.2627 42.3769L19.9332 44.8747C19.3928 45.2819 19.0703 45.9269 19.0703 46.6039V55.6751C19.0703 56.4999 19.5277 57.24 20.2652 57.6091C20.5738 57.7648 20.905 57.84 21.2361 57.84C21.6943 57.84 22.1482 57.6939 22.5321 57.4068L25.3524 55.2912ZM28.1925 57.4743L28.6646 55.1451H37.0865L37.5646 57.4743H28.1925ZM43.4749 47.1304V53.569L42.2541 52.6534V46.2148L43.4749 47.1304ZM32.8812 23.3466L35.1957 26.6527H30.5658L32.8812 23.3466ZM26.7253 35.481C26.7253 33.4778 27.3063 31.5575 28.3637 29.8699C28.3637 29.8699 37.39 29.8482 37.4211 29.8993C38.4681 31.5791 39.037 33.4899 39.037 35.481V51.928H26.7253V35.481ZM22.2883 47.1304L23.5091 46.2148V52.6534L22.2883 53.569V47.1304Z" fill="#03216E" style="fill:#03216E;fill:color(display-p3 0.0118 0.1294 0.4314);fill-opacity:1;"/>
<path d="M30.8916 65.258V68.4751C30.8916 69.3639 31.6127 70.0833 32.4997 70.0833C33.3885 70.0833 34.1079 69.3639 34.1079 68.4751V65.258C34.1079 64.3692 33.3885 63.6499 32.4997 63.6499C31.6118 63.649 30.8916 64.3684 30.8916 65.258Z" fill="#03216E" style="fill:#03216E;fill:color(display-p3 0.0118 0.1294 0.4314);fill-opacity:1;"/>
<path d="M26.0664 65.258V66.8662C26.0664 67.7549 26.7875 68.4743 27.6745 68.4743C28.5633 68.4743 29.2827 67.7549 29.2827 66.8662V65.258C29.2827 64.3692 28.5633 63.6499 27.6745 63.6499C26.7875 63.649 26.0664 64.3684 26.0664 65.258Z" fill="#03216E" style="fill:#03216E;fill:color(display-p3 0.0118 0.1294 0.4314);fill-opacity:1;"/>
<path d="M37.3249 63.6492C36.437 63.6492 35.7168 64.3685 35.7168 65.2573V66.8654C35.7168 67.7542 36.4379 68.4735 37.3249 68.4735C38.2137 68.4735 38.933 67.7542 38.933 66.8654V65.2573C38.9339 64.3685 38.2146 63.6492 37.3249 63.6492Z" fill="#03216E" style="fill:#03216E;fill:color(display-p3 0.0118 0.1294 0.4314);fill-opacity:1;"/>
<path d="M32.7375 43.29C35.5206 43.29 37.7858 41.0248 37.7858 38.24C37.7858 35.4569 35.5206 33.1917 32.7375 33.1917C29.9527 33.1917 27.6875 35.4569 27.6875 38.24C27.6875 41.0248 29.9527 43.29 32.7375 43.29ZM32.7375 36.4079C33.7474 36.4079 34.5687 37.2293 34.5687 38.2391C34.5687 39.2489 33.7474 40.072 32.7375 40.072C31.7268 40.072 30.9046 39.2489 30.9046 38.2391C30.9046 37.2293 31.7268 36.4079 32.7375 36.4079Z" fill="#03216E" style="fill:#03216E;fill:color(display-p3 0.0118 0.1294 0.4314);fill-opacity:1;"/>
</svg>
