<svg width="45" height="45" viewBox="0 0 45 45" fill="none" xmlns="http://www.w3.org/2000/svg">
  <path d="M38.25 19.35C38.25 32.85 22.5 43.2 22.5 43.2C22.5 43.2 6.75 32.85 6.75 19.35C6.75 14.79 8.56 10.42 11.78 7.20C15 3.98 19.37 2.17 22.5 2.17C26.06 2.17 29.58 3.98 32.8 7.20C36.02 10.42 38.25 14.79 38.25 19.35Z" stroke="#03216E" stroke-width="3" stroke-linecap="round" stroke-linejoin="round"/>
  <path d="M22.5 25.5C25.95 25.5 28.75 22.7 28.75 19.25C28.75 15.8 25.95 13 22.5 13C19.05 13 16.25 15.8 16.25 19.25C16.25 22.7 19.05 25.5 22.5 25.5Z" stroke="#46BBA7" stroke-width="3" stroke-linecap="round" stroke-linejoin="round"/>
</svg> 