<svg width="45" height="45" viewBox="0 0 45 45" fill="none" xmlns="http://www.w3.org/2000/svg">
  <path d="M40.5 22.5C40.5 24.57 40.11 26.62 39.36 28.54C38.61 30.46 37.5 32.22 36.09 33.7C34.67 35.18 32.98 36.37 31.1 37.2C29.22 38.03 27.17 38.48 25.1 38.55C23.03 38.61 20.95 38.28 19.01 37.56C17.08 36.85 15.32 35.76 13.82 34.39C12.32 33.02 11.1 31.38 10.23 29.53C9.36 27.69 8.86 25.67 8.75 23.6L4.5 22.5L8.75 21.4C8.87 19.33 9.37 17.31 10.24 15.46C11.11 13.62 12.33 11.97 13.83 10.6C15.33 9.23 17.09 8.14 19.02 7.42C20.95 6.71 23.03 6.38 25.1 6.44C27.18 6.51 29.22 6.96 31.1 7.79C32.99 8.62 34.68 9.81 36.1 11.29C37.51 12.77 38.62 14.53 39.37 16.44C40.12 18.36 40.51 20.42 40.5 22.5Z" stroke="#03216E" stroke-width="3" stroke-linecap="round" stroke-linejoin="round"/>
  <path d="M25.5 15.75H25.52" stroke="#46BBA7" stroke-width="3" stroke-linecap="round" stroke-linejoin="round"/>
  <path d="M20.25 22.5H25.5V31.5" stroke="#46BBA7" stroke-width="3" stroke-linecap="round" stroke-linejoin="round"/>
  <path d="M19.5 31.5H31.5" stroke="#46BBA7" stroke-width="3" stroke-linecap="round" stroke-linejoin="round"/>
</svg> 